<svg xmlns="http://www.w3.org/2000/svg" width="216" height="44" fill="none" viewBox="0 0 216 44"><g clip-path="url(#mightyape-logo-djeA9QLb_svg__a)"><path fill="#fff" d="M67.91 24.107c.942-4.158 2.496-10.733 3.05-11.239.334-.28 5.327-.28 5.882-.168.222.168 2.718 18.263 2.663 19.106-.389.562-5.66 1.011-5.715.786-.166-.73-.5-6.35-.943-10.34h-.166c-.888 3.54-1.942 8.542-2.608 10.116-.5.168-4.605.168-4.827-.113-.222-.28-1.72-6.968-2.441-10.115h-.11c-.445 3.484-.833 8.823-1.166 10.34-1.165.112-5.715-.45-5.715-.73 0-1.124 2.663-17.364 3.052-18.825.166-.562 4.938-.394 5.659-.282.555 1.012 2.22 7.306 3.162 11.464zM86.718 12.925c.221.168.221 18.319-.056 19.387-.166.562-6.047.337-6.103.112-.166-1.686-.222-16.858.056-19.443 1.165-.281 5.88-.225 6.103-.056M98.535 27.48c.61 0 1.165-.113 1.775-.282 0-.337-.055-1.573-.055-1.573s-2.053.056-2.497.112c-.166-.224-.222-3.99-.055-4.27.832-.169 7.823-.394 8.044-.225.222.168.111 9.44 0 9.497-1.276 1.067-4.604 2.304-7.933 2.304-6.713 0-9.82-4.72-9.82-10.509 0-5.732 3.828-9.946 10.374-9.946 3.329 0 5.771 1.124 6.603 2.023 0 .674-1.942 4.214-2.552 4.889a8.86 8.86 0 0 0-3.94-1.124c-2.385 0-4.16 1.742-4.16 4.383.055 3.54 2.052 4.72 4.216 4.72M118.675 32.368c-.056-.618-.111-3.371-.167-6.63-1.664 0-3.495 0-5.104-.057 0 2.81 0 5.395-.055 6.687-1.165.281-6.159.337-6.159.056-.166-1.123-.388-18.15-.166-19.667.055-.562 6.047-.281 6.158-.113s.167 3.54.222 7.418h5.16c0-3.26.055-6.182.222-7.137 1.165-.28 5.881-.225 6.103-.056.222.168.222 18.32-.056 19.387-.166.618-6.103.337-6.158.112M126.165 13.037c.166-.225 14.147-.562 15.035-.28.444.055.388 5.225.222 5.225-.499.113-2.33.169-4.549.281.055 5.676.055 13.712-.056 13.936s-5.936.337-5.992.169c-.111-1.124-.166-8.766-.111-14.105-2.053 0-3.717 0-4.383-.112-.277-1.742-.277-3.428-.166-5.114M153.85 24.894c.055 2.697.055 6.687-.056 7.361-.166.562-6.158.225-6.213 0-.111-1.236 0-4.608.111-7.361-.722-1.405-5.549-10.284-5.493-10.677.055-.393 5.326-1.91 5.604-1.742 1.109 2.135 2.108 4.383 3.051 6.63h.166c1.276-2.472 3.107-6.63 3.329-6.63s5.493 1.349 5.493 1.742-5.271 9.497-5.992 10.677"/><path fill="#E84F05" d="M168.275 12.868c4.938 0 8.1 2.979 8.1 8.654 0 3.99-.222 10.396-.332 10.565s-3.94 0-3.94 0l-.222-1.686c-1.331 1.405-3.217 2.135-5.104 2.135-4.494 0-6.38-2.697-6.38-5.844 0-3.709 3.051-6.013 7.046-6.013 1.498-.056 3.051.45 4.217 1.405 0-2.81-.333-4.945-3.94-4.945-2.94 0-3.939 2.023-4.272 2.023-.332 0-2.552-1.854-2.552-2.192 0-.674 2.497-4.102 7.379-4.102m-.333 16.465c2.275 0 3.496-1.405 3.496-2.81 0-1.798-1.498-2.922-3.551-2.922s-3.44 1.349-3.44 2.979 1.554 2.753 3.495 2.753M197.125 22.759c0 6.012-3.717 9.609-8.821 9.665-2.608 0-4.882-1.124-5.493-2.191 0 2.584.167 10.17-.111 10.395-.277.225-4.327.45-4.937.113-.056-.056.055-26.973.444-27.873.055-.168 4.493.17 4.493.17 0 .505-.055 1.91-.055 2.415.555-1.011 2.608-2.585 5.936-2.585 4.716.057 8.544 3.428 8.544 9.89m-9.709-5.17c-3.162 0-4.716 2.079-4.716 5.114 0 3.483 2.164 5.338 4.605 5.338 3.052 0 4.716-2.08 4.716-5.282.056-3.653-1.997-5.17-4.605-5.17M208.055 28.546c1.776.057 3.496-.561 4.883-1.685a15.2 15.2 0 0 1 1.72 3.427c-.999 1.012-3.607 2.36-6.824 2.36-6.436 0-9.377-4.495-9.377-9.609 0-5.17 3.163-10.002 9.044-10.002 4.272-.113 7.822 3.315 7.989 7.642v.337c.055.956-.111 1.967-.333 2.923-1.886.28-9.487.28-12.039.168-.056 2.754 2.052 4.44 4.937 4.44m2.941-7.586c.166-2.585-1.221-4.327-3.662-4.327-2.552 0-4.216 2.023-4.216 4.383z"/><path fill="#333" d="M4.05 0c.388-.337 39.336 6.237 39.78 6.63.444.394 4.716 35.853 4.494 36.077C48.102 42.932.222 44.225 0 43.944S3.606.394 4.05 0"/><path fill="#E84F05" d="M42.942 7.361c-.277-.281-37.949-5.844-38.17-5.676-.223.169-1.554 26.018-1.554 26.018l41.277-1.686S43.22 7.698 42.942 7.361"/><path fill="#fff" d="M1.553 43.045c.278.337 44.829-1.63 45.106-1.855.167-.168-.61-7.586-1.442-15.06a14.53 14.53 0 0 0-7.767-4.664c2.108-2.023 2.33-4.664 1.054-6.519-1.22-1.854-3.107-3.09-5.271-3.427-5.215-.843-9.432 3.371-9.432 3.371s-3.939-2.978-7.379-2.978-4.937.674-6.269 3.203c-2.33 4.383 1.387 6.912 1.387 6.912s-6.713 1.124-9.099 5.057c-.5 7.811-.998 15.791-.888 15.96"/><path fill="#333" d="M9.099 29.671c.777.113 6.713 6.519 15.812 6.125 7.99-.393 14.092-7.136 14.702-7.417s1.166.28.389 1.292c-2.719 3.653-9.987 7.755-16.423 7.755-6.546 0-12.705-4.102-14.924-6.406-.777-.787-.333-1.461.444-1.349M14.092 18.993c.111-.618 1.276-1.967 3.162-1.967 2.553 0 3.218 1.855 3.163 2.248a.66.66 0 0 1-.666.562c-.11 0-.277-.056-.333-.168-.61-.394-1.331-1.124-2.219-1.124s-1.83.786-2.22 1.011c-.387.225-.998.056-.887-.562"/><path fill="#333" d="M45.994 27.086c-.389-1.911-1.11-3.035-4.827-4.72-.389-9.048-5.548-11.801-9.044-13.544C22.803 4.271 21.693 0 21.693 0s-4.161 2.866-1.443 7.305C15.257 3.596 6.935 5.282 6.935 5.282s7.157 3.428 6.99 4.72c-5.16 2.866-6.657 9.216-7.1 13.15-1.943.9-4.994 2.922-5.216 5.226h.721c.278-4.327 10.652-5.844 10.652-5.844s-3.106-2.304-2.83-5.507c.167-2.192 2.22-4.44 5.605-4.44 3.384 0 7.989 3.091 7.989 3.091s4.882-3.821 8.6-3.54c2.829.225 4.715 1.517 5.603 3.09 1.165 2.08.555 4.159-1.554 6.463 1.61.337 3.218.899 4.716 1.63 1.72.842 3.94 2.079 4.161 3.765z"/><path fill="#333" d="M21.86 26.018c.388-.337-1.942-2.192-1.665-2.416.278-.225 3.606 1.854 4.161 1.854s3.218-2.08 3.606-2.023c1.221 0-1.497 2.36-1.276 2.585s2.885-1.124 2.885-2.416c0-1.124-.61-1.461-1.387-1.461-1.442 0-3.661 2.023-3.828 2.023s-4.16-1.855-4.55-1.855c-.388 0-1.386.169-1.109 1.517.333 1.35 2.885 2.417 3.163 2.192M35.175 18.656c-.11-.618-1.276-1.966-3.162-1.966-2.552 0-3.218 1.854-3.163 2.247 0 .337.278.618.61.562a.5.5 0 0 0 .389-.168c.61-.394 1.331-1.124 2.22-1.124.887 0 1.83.786 2.218 1.011.222.225.61.169.777-.056a.54.54 0 0 0 .111-.506"/></g><defs><clipPath id="mightyape-logo-djeA9QLb_svg__a"><path fill="#fff" d="M0 0h215.49v44.001H0z"/></clipPath></defs></svg>