<?xml version="1.0" encoding="UTF-8"?>
<!DOCTYPE svg PUBLIC "-//W3C//DTD SVG 1.1//EN" "http://www.w3.org/Graphics/SVG/1.1/DTD/svg11.dtd">
<!-- Creator: CorelDRAW 2021 (64-Bit) -->
<svg xmlns="http://www.w3.org/2000/svg" xml:space="preserve" width="220px" height="29px" version="1.1" style="shape-rendering:geometricPrecision; text-rendering:geometricPrecision; image-rendering:optimizeQuality; fill-rule:evenodd; clip-rule:evenodd"
viewBox="0 0 14.091 1.826"
 xmlns:xlink="http://www.w3.org/1999/xlink"
 xmlns:xodm="http://www.corel.com/coreldraw/odm/2003">
 <defs>
  <style type="text/css">
   <![CDATA[
    .fil0 {fill:#fff;fill-rule:nonzero}
   ]]>
  </style>
 </defs>
 <g id="Layer_x0020_1">
  <metadata id="CorelCorpID_0Corel-Layer"/>
  <path class="fil0" d="M0 0.592l0.407 0c0.181,0 0.246,0.006 0.3,0.026 0.101,0.049 0.161,0.144 0.161,0.258 0,0.106 -0.032,0.16 -0.14,0.214 0.112,0.038 0.187,0.144 0.177,0.262 0,0.177 -0.14,0.295 -0.342,0.295l-0.562 0 0 -0.172 0.081 0 0 -0.711 -0.081 0 -0.001 -0.172zm13.55 0.911c-0.053,0.075 -0.111,0.098 -0.175,0.098 -0.138,0 -0.234,-0.113 -0.234,-0.278 0,-0.156 0.095,-0.267 0.225,-0.267 0.106,0 0.153,0.068 0.184,0.112l0 -0.104 0.163 0 0 0.069 -0.08 0 0 0.475c0,0.14 -0.089,0.218 -0.247,0.218 -0.095,0 -0.177,-0.041 -0.216,-0.109 -0.006,-0.014 -0.013,-0.027 -0.023,-0.057l0.094 0c0.035,0.07 0.075,0.096 0.152,0.096 0.098,0 0.157,-0.051 0.157,-0.134l0 -0.119 0 0zm0 -0.224c0,-0.064 -0.078,-0.154 -0.167,-0.154 -0.093,0 -0.152,0.077 -0.152,0.203 0,0.128 0.06,0.205 0.158,0.205 0.084,0 0.161,-0.083 0.161,-0.151l0 -0.103zm-0.69 -0.081c0.028,-0.061 0.043,-0.079 0.07,-0.104 0.03,-0.026 0.067,-0.04 0.105,-0.04 0.014,0 0.033,0.003 0.062,0.007l0 0.085c-0.029,-0.006 -0.046,-0.007 -0.061,-0.007 -0.156,0 -0.176,0.162 -0.176,0.171l0 0.268 0.099 0 0 0.067 -0.265 0 0 -0.067 0.084 0 0 -0.443 -0.086 0 0 -0.069 0.169 0 0 0.132 -0.001 0zm-0.756 0.155c0,-0.175 0.108,-0.297 0.265,-0.297 0.154,0 0.266,0.126 0.266,0.297 0,0.18 -0.109,0.303 -0.267,0.303 -0.158,0 -0.264,-0.121 -0.264,-0.303zm0.261 0.231c0.109,0 0.176,-0.088 0.176,-0.234 0,-0.136 -0.069,-0.224 -0.176,-0.224 -0.104,0 -0.169,0.088 -0.169,0.229 0,0.145 0.064,0.229 0.169,0.229zm-0.451 -0.038l0.1 0 0 0.098 -0.1 0 0 -0.098zm1.915 -1.023c-0.144,0 -0.261,-0.118 -0.261,-0.262 0,-0.143 0.117,-0.261 0.261,-0.261 0.144,0 0.262,0.118 0.262,0.261 0.001,0.144 -0.117,0.262 -0.262,0.262zm0 -0.482c-0.12,0 -0.22,0.099 -0.22,0.22 0,0.122 0.098,0.221 0.22,0.221 0.12,0 0.22,-0.099 0.22,-0.221 0,-0.121 -0.098,-0.22 -0.22,-0.22zm0.027 0.075c0.026,0 0.045,0.007 0.06,0.02 0.014,0.012 0.022,0.03 0.022,0.051 0,0.016 -0.004,0.03 -0.011,0.043 -0.006,0.012 -0.019,0.02 -0.036,0.025l0 0.001c0.009,0.001 0.014,0.004 0.02,0.007 0.005,0.004 0.008,0.008 0.011,0.012 0.002,0.006 0.005,0.011 0.007,0.017 0.001,0.005 0.003,0.012 0.003,0.019 0,0.007 0.001,0.014 0.001,0.021 0,0.007 0.001,0.014 0.001,0.021 0.002,0.007 0.003,0.012 0.004,0.019 0.002,0.006 0.005,0.011 0.009,0.015l-0.04 0c-0.003,-0.002 -0.005,-0.006 -0.006,-0.011 -0.001,-0.004 -0.001,-0.009 -0.001,-0.016 0,-0.006 0,-0.013 -0.002,-0.02 0,-0.006 -0.001,-0.013 -0.002,-0.02 -0.002,-0.007 -0.003,-0.013 -0.005,-0.02 -0.001,-0.005 -0.004,-0.011 -0.007,-0.015 -0.002,-0.004 -0.006,-0.008 -0.012,-0.011 -0.005,-0.003 -0.013,-0.004 -0.021,-0.004l-0.088 0 0 0.115 -0.036 0 0 -0.269 0.129 0zm0.008 0.123c0.007,-0.001 0.014,-0.004 0.019,-0.007 0.006,-0.004 0.01,-0.008 0.014,-0.015 0.003,-0.005 0.005,-0.014 0.005,-0.023 0,-0.014 -0.004,-0.025 -0.011,-0.033 -0.007,-0.009 -0.019,-0.013 -0.037,-0.013l-0.09 0 0 0.094 0.075 0c0.009,-0.001 0.016,-0.001 0.025,-0.003l0 0zm-2.062 1.146c-0.038,0.177 -0.181,0.284 -0.375,0.284 -0.224,0 -0.39,-0.177 -0.39,-0.422 0,-0.246 0.166,-0.422 0.39,-0.422 0.123,0 0.241,0.059 0.31,0.166 0.054,0.091 0.086,0.192 0.08,0.3l-0.578 0c0.021,0.209 0.155,0.22 0.192,0.22 0.075,0.006 0.144,-0.048 0.166,-0.118l0.205 -0.008 0 0zm-0.209 -0.235c0,-0.091 -0.075,-0.161 -0.161,-0.161l-0.005 0c-0.091,0 -0.166,0.07 -0.181,0.155l0.347 0.006 0 0zm-0.894 -0.177c0.054,-0.101 0.112,-0.144 0.203,-0.144 0.032,0 0.06,0.005 0.092,0.011l0 0.187c-0.032,-0.006 -0.064,-0.011 -0.097,-0.011 -0.101,-0.006 -0.187,0.069 -0.192,0.166l0 0.31 0.096 0 0 0.155 -0.375 0 0 -0.155 0.081 0 0 -0.493 -0.081 0 0 -0.155 0.273 0 0 0.129zm-0.448 0.524l0.069 0 0 0.155 -0.252 0 0 -0.097c-0.059,0.075 -0.149,0.112 -0.246,0.112 -0.161,0 -0.284,-0.106 -0.284,-0.252 0,-0.235 0.267,-0.261 0.525,-0.283 0,-0.123 -0.043,-0.161 -0.144,-0.161 -0.101,0 -0.14,0.049 -0.144,0.123l0 0.006 -0.193 -0.006c0.011,-0.16 0.14,-0.261 0.332,-0.261 0.225,0 0.342,0.101 0.342,0.284l-0.005 0.38 0 0zm-0.193 -0.225c-0.186,0.016 -0.31,0.031 -0.31,0.143 0,0.064 0.054,0.107 0.135,0.107 0.097,0 0.177,-0.075 0.181,-0.172l0 -0.002 0 -0.075 -0.006 0 0 -0.001zm-1.744 -0.428l0.321 0 0 0.155 -0.081 0 0.112 0.476 0.135 -0.631 0.209 0 0.134 0.621 0.106 -0.464 -0.08 0 0 -0.155 0.321 0 0 0.155 -0.069 0 -0.172 0.646 -0.214 0 -0.134 -0.557 -0.129 0.557 -0.214 0 -0.178 -0.648 -0.069 0 0.002 -0.155zm-0.62 -0.252l0.256 0 0.294 0.889 0.081 0 0 0.171 -0.241 0 -0.069 -0.229 -0.375 0 -0.069 0.229 -0.247 0 0 -0.171 0.08 0 0.29 -0.889 0 0zm0.127 0.198l-0.14 0.471 0.278 0 -0.138 -0.471zm-0.637 0.638c-0.011,0.049 -0.031,0.086 -0.063,0.123 -0.064,0.075 -0.155,0.118 -0.258,0.118 -0.22,0 -0.375,-0.172 -0.375,-0.418 0,-0.235 0.155,-0.418 0.353,-0.418 0.198,0 0.359,0.155 0.359,0.439l-0.583 0c0.011,0.117 0.037,0.186 0.091,0.24 0.043,0.038 0.097,0.06 0.15,0.06 0.091,0 0.149,-0.043 0.192,-0.14l0.134 -0.004zm-0.117 -0.246c0,-0.075 -0.026,-0.144 -0.08,-0.204 -0.038,-0.031 -0.086,-0.054 -0.135,-0.048 -0.101,0.005 -0.187,0.075 -0.214,0.172 -0.006,0.026 -0.017,0.054 -0.017,0.08l0.446 0zm-1.006 -0.637l0.229 0 0 1.01 0.107 0 0 0.097 -0.342 0 0 -0.097 0.118 0 0 -0.92 -0.112 0 0 -0.09zm-0.876 0l0.224 0 0 0.465c0.032,-0.059 0.123,-0.177 0.261,-0.177 0.182,0 0.322,0.187 0.322,0.422 0,0.22 -0.15,0.407 -0.322,0.407 -0.143,0 -0.214,-0.097 -0.261,-0.161l0 0.151 -0.23 0 0 -0.097 0.112 0 0 -0.914 -0.106 0 0 -0.096 0 0zm0.224 0.765c0,0.135 0.101,0.241 0.23,0.252 0.14,0 0.224,-0.123 0.224,-0.321 0,-0.198 -0.091,-0.315 -0.224,-0.315 -0.118,0 -0.236,0.128 -0.236,0.246l0.006 0.138zm-1.342 -0.317c0.037,-0.054 0.106,-0.166 0.257,-0.166 0.107,0 0.166,0.054 0.187,0.166 0.021,-0.037 0.043,-0.069 0.075,-0.1 0.048,-0.043 0.106,-0.07 0.171,-0.07 0.123,0 0.193,0.081 0.193,0.22l0 0.508 0.112 0 0 0.097 -0.224 0 0 -0.563c0,-0.112 -0.038,-0.166 -0.118,-0.166 -0.14,0 -0.215,0.166 -0.215,0.224l0 0.407 0.118 0 0 0.097 -0.235 0 0 -0.579c0,-0.101 -0.038,-0.144 -0.118,-0.144 -0.123,0 -0.214,0.155 -0.214,0.23l0 0.401 0.117 0 0 0.097 -0.347 0 0 -0.097 0.118 0 0 -0.621 -0.118 0 0 -0.097 0.235 0 0.006 0.157 0 -0.001zm-0.338 0.659l-0.23 0 0 -0.144c-0.053,0.101 -0.16,0.161 -0.272,0.161 -0.134,0.011 -0.252,-0.097 -0.262,-0.23 0,-0.005 0,-0.011 0,-0.016 0,-0.155 0.135,-0.23 0.456,-0.262l0.074 -0.005 0 -0.081c0,-0.091 -0.069,-0.149 -0.181,-0.149 -0.112,0 -0.172,0.037 -0.192,0.144l-0.126 0c0.011,-0.064 0.043,-0.123 0.091,-0.166 0.06,-0.049 0.14,-0.07 0.215,-0.07 0.166,0 0.304,0.075 0.304,0.279l0 0.442 0.112 0 0.011 0.097 0 0zm-0.23 -0.418l-0.074 0.011c-0.247,0.032 -0.327,0.075 -0.327,0.178 0.006,0.091 0.08,0.155 0.166,0.155 0.118,-0.006 0.22,-0.092 0.235,-0.209l0 -0.135 0 0zm-1.037 -0.112l0.369 0 0 0.525 -0.118 0 0 -0.166c-0.02,0.037 -0.048,0.069 -0.08,0.101 -0.069,0.059 -0.155,0.091 -0.241,0.091 -0.246,0 -0.438,-0.241 -0.438,-0.551 0,-0.31 0.192,-0.556 0.433,-0.556 0.134,-0.006 0.252,0.069 0.315,0.181l0 -0.166 0.113 0 0 0.338 -0.118 0c-0.011,-0.049 -0.032,-0.092 -0.06,-0.129 -0.054,-0.069 -0.139,-0.112 -0.224,-0.118 -0.128,0 -0.321,0.113 -0.321,0.439 0,0.258 0.14,0.444 0.321,0.444 0.144,-0.005 0.262,-0.112 0.289,-0.252 0.006,-0.026 0.006,-0.059 0.006,-0.085l-0.252 0 0.006 -0.096 0 0zm-0.67 0.263c-0.037,0.177 -0.181,0.284 -0.375,0.284 -0.224,0 -0.39,-0.177 -0.39,-0.422 0,-0.246 0.166,-0.422 0.39,-0.422 0.123,0 0.241,0.059 0.31,0.166 0.054,0.091 0.086,0.192 0.08,0.3l-0.578 0c0.02,0.209 0.155,0.22 0.192,0.22 0.075,0.006 0.144,-0.048 0.166,-0.118l0.205 -0.008 0 0zm-0.203 -0.235c0,-0.091 -0.075,-0.161 -0.161,-0.161l-0.005 0c-0.092,0 -0.166,0.07 -0.182,0.155l0.348 0.006 0 0zm-1.289 -0.386l0 0.257 0.209 0c0.075,0.006 0.144,-0.048 0.15,-0.123 0,-0.005 0,-0.011 0,-0.011 0,-0.069 -0.069,-0.123 -0.166,-0.123l-0.193 0zm0 0.423l0 0.29 0.225 0c0.085,0.005 0.16,-0.054 0.166,-0.14 0,0 0,0 0,-0.006 0,-0.091 -0.075,-0.149 -0.187,-0.149l-0.204 0.005 0 0z"/>
 </g>
</svg>
