<?xml version="1.0" encoding="UTF-8"?>
<!DOCTYPE svg PUBLIC "-//W3C//DTD SVG 1.1//EN" "http://www.w3.org/Graphics/SVG/1.1/DTD/svg11.dtd">
<!-- Creator: CorelDRAW 2021 (64-Bit) -->
<svg xmlns="http://www.w3.org/2000/svg" xml:space="preserve" width="112px" height="32px" version="1.1" style="shape-rendering:geometricPrecision; text-rendering:geometricPrecision; image-rendering:optimizeQuality; fill-rule:evenodd; clip-rule:evenodd"
viewBox="0 0 3.193 0.921"
 xmlns:xlink="http://www.w3.org/1999/xlink"
 xmlns:xodm="http://www.corel.com/coreldraw/odm/2003">
 <defs>
  <style type="text/css">
   <![CDATA[
    .fil0 {fill:#fff;fill-rule:nonzero}
    .fil1 {fill:#fff;fill-rule:nonzero}
   ]]>
  </style>
 </defs>
 <g id="Layer_x0020_1">
  <metadata id="CorelCorpID_0Corel-Layer"/>
  <g id="_2714533290032">
   <g id="_2723498407360">
    <path class="fil0" d="M3.006 0.471l0 0.01 0.109 0 0 -0.01c0,-0.031 -0.017,-0.054 -0.054,-0.054 -0.038,0 -0.055,0.023 -0.055,0.054l0 0zm0 0.066l0 0.012c0,0.033 0.017,0.056 0.057,0.056 0.039,0 0.05,-0.015 0.06,-0.034 0.005,-0.008 0.007,-0.009 0.016,-0.005l0.045 0.022c0.009,0.005 0.009,0.01 0.006,0.018 -0.02,0.044 -0.068,0.069 -0.128,0.069 -0.09,0 -0.138,-0.054 -0.138,-0.127l0 -0.073c0,-0.071 0.045,-0.127 0.138,-0.127 0.088,0 0.131,0.056 0.131,0.126l0 0.049c0,0.008 -0.003,0.014 -0.015,0.014l-0.172 0 0 0zm-0.112 -0.177l0 0.06c0,0.007 -0.002,0.01 -0.009,0.01l-0.01 0c-0.045,0 -0.071,0.021 -0.081,0.055l0 0.174c0.001,0.004 -0.002,0.008 -0.006,0.008l-0.072 0c-0.004,0 -0.008,-0.003 -0.007,-0.008l0 -0.297c-0.001,-0.004 0.003,-0.008 0.007,-0.008l0.066 0c0.007,0 0.008,0.004 0.008,0.009l0 0.042c0.015,-0.028 0.043,-0.055 0.091,-0.055 0.011,0 0.013,0.002 0.013,0.01l0 0 0 0zm-0.325 0.202l0 -0.03c-0.017,-0.001 -0.033,0 -0.05,0.002 -0.032,0.004 -0.049,0.013 -0.049,0.037 0,0.023 0.015,0.034 0.039,0.034 0.028,0.001 0.05,-0.015 0.06,-0.043l0 0 0 0zm0.083 -0.107l0 0.204c0,0.004 -0.003,0.008 -0.007,0.008 -0.001,0 -0.001,0 -0.002,0l-0.062 0c-0.004,0.001 -0.008,-0.002 -0.009,-0.007 0,0 0,-0.001 0,-0.001l0 -0.033c-0.018,0.03 -0.051,0.049 -0.086,0.048 -0.059,0 -0.096,-0.038 -0.096,-0.096 0,-0.057 0.035,-0.091 0.122,-0.097 0.019,-0.002 0.038,-0.002 0.057,-0.001l0 -0.022c0,-0.031 -0.016,-0.043 -0.043,-0.043 -0.028,0 -0.036,0.011 -0.043,0.029 -0.003,0.007 -0.005,0.008 -0.012,0.006l-0.062 -0.015c-0.006,-0.002 -0.007,-0.006 -0.006,-0.01 0.009,-0.045 0.051,-0.078 0.126,-0.078 0.079,0 0.123,0.037 0.123,0.108l0 0zm-0.301 -0.101c0.001,0.007 -0.001,0.013 -0.008,0.015l-0.06 0.017c-0.007,0.003 -0.011,0 -0.013,-0.007 -0.009,-0.028 -0.024,-0.051 -0.065,-0.051 -0.052,0 -0.068,0.034 -0.068,0.08l0 0.105c0,0.046 0.018,0.08 0.068,0.08 0.044,0 0.061,-0.025 0.068,-0.056 0.001,-0.007 0.006,-0.011 0.013,-0.008l0.06 0.019c0.007,0.003 0.009,0.008 0.007,0.015 -0.014,0.061 -0.058,0.111 -0.15,0.111 -0.103,0 -0.155,-0.067 -0.155,-0.158l0 -0.111c0,-0.092 0.053,-0.158 0.155,-0.158 0.09,-0.001 0.132,0.047 0.148,0.107l0 0zm-0.611 -0.007c0.04,0 0.065,0.023 0.077,0.057 0.024,-0.034 0.052,-0.057 0.091,-0.057 0.055,0 0.086,0.043 0.086,0.109l0 0.203c0,0.005 -0.004,0.008 -0.01,0.008l-0.065 0c-0.006,0 -0.01,-0.003 -0.01,-0.008l0 -0.189c0,-0.028 -0.013,-0.045 -0.035,-0.045 -0.023,0 -0.04,0.019 -0.049,0.049l0 0.185c0.001,0.004 -0.002,0.008 -0.007,0.008 0,0 0,0 0,0l-0.07 0c-0.005,0 -0.008,-0.003 -0.008,-0.008l0 -0.189c0,-0.028 -0.012,-0.045 -0.034,-0.045 -0.024,0 -0.041,0.02 -0.049,0.049l0 0.184c0,0.005 -0.003,0.009 -0.007,0.009 -0.001,0 -0.001,0 -0.002,0l-0.068 0c-0.005,0 -0.009,-0.003 -0.009,-0.007 0,-0.001 0,-0.001 0,-0.002l0 -0.297c0,-0.004 0.003,-0.008 0.008,-0.008l0.067 0c0.004,0 0.008,0.003 0.008,0.008l0 0.036c0.019,-0.026 0.046,-0.05 0.086,-0.05l0 0zm-0.308 0.215l0 -0.03c-0.017,-0.001 -0.034,0 -0.05,0.002 -0.032,0.004 -0.049,0.013 -0.049,0.037 0,0.023 0.015,0.034 0.039,0.034 0.028,0.001 0.05,-0.015 0.06,-0.043l0 0 0 0zm0.083 -0.107l0 0.204c0,0.004 -0.003,0.008 -0.008,0.008 0,0 0,0 -0.001,0l-0.062 0c-0.004,0.001 -0.008,-0.002 -0.009,-0.007 0,0 0,-0.001 0,-0.001l0 -0.033c-0.018,0.03 -0.051,0.049 -0.086,0.048 -0.059,0 -0.097,-0.038 -0.097,-0.096 0,-0.057 0.036,-0.091 0.123,-0.097 0.019,-0.002 0.038,-0.002 0.057,-0.001l0 -0.022c0,-0.031 -0.016,-0.043 -0.043,-0.043 -0.028,0 -0.036,0.011 -0.043,0.029 -0.003,0.007 -0.006,0.008 -0.012,0.006l-0.062 -0.015c-0.006,-0.002 -0.007,-0.006 -0.006,-0.01 0.009,-0.045 0.051,-0.078 0.126,-0.078 0.079,0 0.123,0.037 0.123,0.108l0 0 0 0zm-0.31 -0.105c0.002,0.008 0,0.013 -0.007,0.015l-0.061 0.019c-0.007,0.002 -0.011,0 -0.014,-0.008 -0.009,-0.031 -0.029,-0.048 -0.067,-0.048 -0.057,0 -0.077,0.034 -0.077,0.08l0 0.105c0,0.046 0.02,0.08 0.077,0.08 0.048,0 0.073,-0.023 0.073,-0.071l0 -0.013 -0.064 0c-0.005,0 -0.008,-0.003 -0.008,-0.009l0 -0.058c-0.001,-0.005 0.003,-0.009 0.007,-0.01l0.14 0c0.005,0 0.009,0.003 0.009,0.009l0 0.087c0,0.083 -0.061,0.146 -0.157,0.146 -0.112,0 -0.165,-0.067 -0.165,-0.158l0 -0.111c0,-0.092 0.053,-0.158 0.165,-0.158 0.091,-0.001 0.133,0.052 0.149,0.103l0 0 0 0z"/>
    <path class="fil1" d="M0.634 0.57c0,0.134 -0.099,0.236 -0.253,0.236 -0.182,0 -0.267,-0.108 -0.267,-0.256l0 -0.179c0,-0.148 0.085,-0.256 0.267,-0.256 0.147,0 0.214,0.084 0.241,0.168 0.003,0.013 -0.001,0.02 -0.012,0.024l-0.098 0.029c-0.012,0.004 -0.018,0 -0.022,-0.012 -0.016,-0.05 -0.049,-0.078 -0.109,-0.078 -0.093,0 -0.124,0.055 -0.124,0.129l0 0.17c0,0.074 0.031,0.129 0.124,0.129 0.077,0 0.117,-0.036 0.117,-0.113l0 -0.022 -0.102 0c-0.009,0 -0.014,-0.005 -0.014,-0.015l0 -0.094c0,-0.009 0.005,-0.015 0.014,-0.015l0.222 0c0.01,0 0.015,0.005 0.015,0.014l0.001 0.141 0 0zm-0.243 -0.57l-0.379 0c-0.007,0 -0.012,0.005 -0.012,0.012l0 0.552c0,0.197 0.16,0.357 0.357,0.357l0.034 0c0.197,0 0.357,-0.16 0.357,-0.357l0 -0.207c0,-0.197 -0.16,-0.357 -0.357,-0.357z"/>
   </g>
  </g>
 </g>
</svg>
