<?xml version="1.0" encoding="UTF-8"?>
<svg xmlns="http://www.w3.org/2000/svg" width="144.642" height="61.757" viewBox="0 0 144.642 61.757">
  <g id="Group_539" data-name="Group 539" transform="translate(0 0)" style="isolation: isolate">
    <path id="Path_2077" data-name="Path 2077" d="M1014.984,521.253a3.954,3.954,0,0,1-2.7.5,1.982,1.982,0,0,1-.839-.475,2.471,2.471,0,0,1-.442-2.57,10.61,10.61,0,0,1,.733-1.919c.333-.647.929-1.9,1.78-3.738.97-2.018,1.459-3.025,2.444-5.04,1.812-3.818,2.739-5.725,4.614-9.512-4.187-1.149-6.29-1.672-10.524-2.626l-1.174,2.611c-.887,2.017-1.832,4.2-2.812,6.542-1.437,3.42-2.53,6.33-3.323,8.75l-.085-.018a14.268,14.268,0,0,1-3.754,3.626,4.936,4.936,0,0,1-1.957.712,2.671,2.671,0,0,1-.763-.019,1.763,1.763,0,0,1-.8-.356,2.52,2.52,0,0,1-.619-2.564,9.367,9.367,0,0,1,.58-1.944c.277-.661.737-2.063,1.487-3.857a51.942,51.942,0,0,0,3.16-8.736,10.48,10.48,0,0,0,.195-2.509c-.159-2.565-1.823-4.273-4.947-4.985-.192-.031-.293-.051-.489-.081a11.885,11.885,0,0,0-6.379,1.04c-1.455.607-3.744,2.255-3.9,2.18,0,0-1.992-4.529-5.159-5.118-.173-.031-.356-.064-.565-.085a10.691,10.691,0,0,0-5.665,1.2,14.657,14.657,0,0,0-3.25,2.127c.368-1.413.551-2.123.926-3.53a2.781,2.781,0,0,0,.1-.457c-6.29-.375-9.434-.459-15.738-.429,2.136-.008,3.424,1.337,3.744,3.954a12.458,12.458,0,0,1,.1,1.708,13.378,13.378,0,0,1-.212,2.2c-.506,2.659-.831,4.32-.87,4.909-.453,2.363-.819,4.327-1.158,6.171a13.991,13.991,0,0,1-2.884,4.278,4.872,4.872,0,0,1-1.792,1.1,2.6,2.6,0,0,1-.78.135,1.7,1.7,0,0,1-.854-.189,2.522,2.522,0,0,1-1.172-2.38,9.4,9.4,0,0,1,.209-2.083c.257-1.671.387-2.5.651-4.174.367-2.241.544-3.368.932-5.617.7-4.251,1.068-6.382,1.839-10.626-4.4.065-6.6.143-10.988.407-.175,1.142-.261,1.724-.429,2.871-.26-.172-.385-.249-.637-.424a11.366,11.366,0,0,0-5.856-1.78c-.557.008-1.114.031-1.669.09a13.787,13.787,0,0,0-5.984,1.817c-3.722,2.3-5.75,6.551-6.1,12.58a26.277,26.277,0,0,0,.228,5.428,21.029,21.029,0,0,0,.565,2.492,15.029,15.029,0,0,1-6.112,6.938c-.026-.419-.039-.627-.061-1.04,0-.869-.057-4.555.022-11.031.082-6.274.208-10.483.261-12.6a197.957,197.957,0,0,0-18.246,8.325c.673,1.607,1,2.412,1.667,4.023,2.289-1.388,3.442-2.063,5.78-3.381.149,6.8.271,10.192.6,16.96a9.346,9.346,0,0,1-7.632-2.43,18.761,18.761,0,0,1-4.126-7.864c-.092-.362-.149-.542-.255-.915a23.807,23.807,0,0,1,1.371-17.683,18.586,18.586,0,0,1,7.029-7.978,8.555,8.555,0,0,1,2.438-1.028,3.381,3.381,0,0,1,.839-.077.841.841,0,0,1,.606.2.387.387,0,0,1,.056.077c.022.1-.059.23-.22.32a8.115,8.115,0,0,0-1.917,1.332c-.089.1-.157.2-.222.268a.235.235,0,0,1-.035.039,4,4,0,0,0-.936,1.672c-.032.133-.041.247-.056.325a3.428,3.428,0,0,0-.025,1.531,4.074,4.074,0,0,0,2.362,2.8,7.112,7.112,0,0,0,7.9-1.387,4.725,4.725,0,0,0,1.33-3.2c0-.182,0-.38-.012-.561-.033-.244-.05-.515-.088-.751a6.371,6.371,0,0,0-2.884-4.518c-2.043-1.321-5.022-1.662-8.846-.856-.345.075-.712.2-1.03.25-1.056.177-2.374.237-3.526.51a21.989,21.989,0,0,0-8.576,4.165,22.811,22.811,0,0,0-9.058,17.981,27.353,27.353,0,0,0,5.691,17.869,14.388,14.388,0,0,0,6.842,4.936,20.009,20.009,0,0,0,8.838.935c1.795-.183,3.287-.379,4.494-.61.025.6.032.9.048,1.492-.3.223-1.031.7-2.154,1.453-1.2.809-2.18,1.509-2.959,2.08-1.734,1.281-2.926,2.255-3.6,2.873-1.764,1.6-2.492,2.933-2.191,3.923a1.855,1.855,0,0,0,.192.385,3.9,3.9,0,0,0,.943,1.081,1.917,1.917,0,0,0,.214.165c.016.013.026.013.043.043,2.306,1.849,5.191,2.245,8.789,1.291.106-.033.159-.043.27-.072a17.985,17.985,0,0,0,4.309-2.055,9.524,9.524,0,0,0,3.759-3.637,33.471,33.471,0,0,0,1.569-7.966,9.365,9.365,0,0,1,.23-2.1,3.6,3.6,0,0,1,.831-.594q1.35-.905,2.3-1.637h.026v-.032h.025a23.423,23.423,0,0,0,2.181-1.936,18.024,18.024,0,0,0,2.865-3.814,9.514,9.514,0,0,0,9.7,4.709,1.527,1.527,0,0,0,.26-.03c3.2-.336,6.533-3.836,6.953-3.836.081,0,2.937,2.53,5.712,2.779a17.552,17.552,0,0,0,2.413.09,7.7,7.7,0,0,0,2.311-.378,11.022,11.022,0,0,0,3.773-2.262c-.131.794-.264,1.626-.407,2.517,3.515-.026,5.283,0,8.792.119,1.97-9.215,3.052-13.808,5.38-22.968a8.073,8.073,0,0,1,4.2-1.18c.1.01.16.01.257.019a1.227,1.227,0,0,1,1.233,1.372,30.641,30.641,0,0,1-.75,2.974c-.167.62-.375,1.324-.624,2.1-1.872,7.146-2.759,10.734-4.416,17.92,3.519.209,5.284.348,8.8.7,1.807-6.359,2.76-9.532,4.739-15.86.385-1.2.575-1.8.966-2.994a30.238,30.238,0,0,1,.984-3.724c.646-.831,3.17-1.177,4.154-1.044a1.819,1.819,0,0,1,.505.135,1.544,1.544,0,0,1,.933,1.826c-.013.089-.017.125-.026.208a26.708,26.708,0,0,1-1.478,4.726,53.368,53.368,0,0,0-3.186,10.877,8.419,8.419,0,0,0-.026,2.525c.4,2.238,2.006,3.8,4.795,4.706a16.3,16.3,0,0,0,2.316.607,9.234,9.234,0,0,0,2.755.091,11.311,11.311,0,0,0,5.447-2.325c.237-.178.465-.408.7-.609.092,2.232,1.481,3.979,4.224,5.207a17.3,17.3,0,0,0,2.785,1,8.269,8.269,0,0,0,2.433.275c4.062-.221,8.1-3.044,12.32-8.533-1.543-.465-2.319-.692-3.861-1.131A13.889,13.889,0,0,1,1014.984,521.253Zm-110.642,18.5c-.259.075-.51-.186-.62-.712a7.392,7.392,0,0,1,1.334-6.1c.475-.61,1.093-1.4,1.128-1.392,0,0,.014.342.014.5.062,4.472-.373,7.262-1.86,7.7Zm35.531-35.51a24.84,24.84,0,0,1-1.512,7.893,3.053,3.053,0,0,1-1.7,1.557,3.812,3.812,0,0,1-1.007.237,4.538,4.538,0,0,1-1.315-.073,4.615,4.615,0,0,1-2.212-1.219,4.766,4.766,0,0,1-1.369-2.518c-.127-.634-.215-1.269-.279-1.87a14.053,14.053,0,0,1,.759-7.057c.915-2.255,2.271-3.56,3.985-3.863a6.436,6.436,0,0,1,.666-.093,4.063,4.063,0,0,1,2.745.606,4.452,4.452,0,0,1,1.378,2.342,1.107,1.107,0,0,1,.059.28,36.606,36.606,0,0,1-.2,3.776Z" transform="translate(-880.385 -479.905)" fill="#ffc81e"></path>
    <path id="Path_2078" data-name="Path 2078" d="M1003.169,486.766a7.428,7.428,0,0,0-8.519-2.188,4.058,4.058,0,0,0-2.51,2.86,4.2,4.2,0,0,0,.95,3.672,7.561,7.561,0,0,0,8.293,2.136,4.2,4.2,0,0,0,2.655-2.753,4.1,4.1,0,0,0-.869-3.726Z" transform="translate(-859.53 -479.132)" fill="#ffc81e"></path>
  </g>
</svg>
