<svg width="698" height="102" viewBox="0 0 698 102" fill="none" xmlns="http://www.w3.org/2000/svg">
<path d="M688.328 19.7446V12.1048H691.32C693.089 12.1048 694.048 12.9328 694.048 14.4005C694.048 15.4167 693.465 16.1882 692.468 16.5081L694.312 19.7446H692.581L690.944 16.6774H689.89V19.7446H688.328ZM684 16C684 11.672 687.199 9 691 9C694.801 9 698 11.672 698 16C698 20.3091 694.801 23 691 23C687.199 23 684 20.3091 684 16ZM685.11 16C685.11 19.707 687.801 22.0027 691 22.0027C694.18 22.0027 696.89 19.707 696.89 16C696.89 12.2742 694.18 9.99731 691 9.99731C687.801 9.99731 685.11 12.2742 685.11 16ZM689.89 15.4919H691.151C691.997 15.4919 692.468 15.0968 692.468 14.4005C692.468 13.6855 692.035 13.328 691.151 13.328H689.89V15.4919Z" fill="#1E3A44"/>
<g clip-path="url(#clip0_202_112)">
<path d="M153.382 24.188H170.087L179.515 55.5572C180.235 58.0111 180.525 59.9541 180.735 61.7569H180.875C181.095 59.9541 181.455 57.9309 182.174 55.407L191.172 24.178H208.088V75.3783H197.001V40.4735C197.001 38.5305 197.071 36.6475 197.291 34.7045H197.071C196.931 36.1468 196.421 38.3101 195.991 39.6823L185.693 75.3783H175.476L164.749 39.6823C164.249 38.3101 163.809 36.1468 163.669 34.7746H163.449C163.589 36.5073 163.739 38.4504 163.739 40.4735V75.3783H153.372V24.188H153.382Z" fill="#1E3A44"/>
<path d="M227.313 24.188V56.9995C227.313 62.9889 230.772 66.7347 236.811 66.7347C242.849 66.7347 246.308 62.9788 246.308 56.9995V24.188H258.475V57.5103C258.475 69.1986 250.417 76.6202 236.811 76.6202C223.204 76.6202 215.146 69.1886 215.146 57.5103V24.188H227.313Z" fill="#1E3A44"/>
<path d="M265.533 24.188H287.998C300.955 24.188 306.713 30.5379 306.713 39.9127C306.713 46.3327 303.334 51.7412 296.706 53.9747L308.013 75.3983H294.836L285.049 55.7775H277.71V75.3983H265.543V24.188H265.533ZM285.548 47.4144C291.457 47.4144 294.046 44.5299 294.046 39.9127C294.046 35.2954 291.527 32.7715 285.548 32.7715H277.7V47.4144H285.548Z" fill="#1E3A44"/>
<path d="M312.542 75.3983V24.188H335.216C346.303 24.188 353.572 30.5379 353.572 40.2732C353.572 50.0085 346.443 56.7891 334.926 56.7891H324.699V75.3983H312.532H312.542ZM332.267 48.2858C337.665 48.2858 340.835 45.4714 340.835 40.6438C340.835 35.8162 337.735 33.0018 332.267 33.0018H324.709V48.2958H332.267V48.2858Z" fill="#1E3A44"/>
<path d="M402.299 75.3983H390.132V54.1249H370.477V75.3983H358.31V24.188H370.477V44.7402H390.132V24.188H402.299V75.3883V75.3983Z" fill="#1E3A44"/>
<path d="M423.314 56.8592L406.328 24.188H419.145L428.143 43.0876C428.723 44.3897 429.153 45.6817 429.362 46.8335H429.502C429.722 45.6817 430.152 44.3797 430.722 43.0876L439.65 24.188H452.537L435.551 56.8592V75.3983H423.314V56.8592Z" fill="#1E3A44"/>
<path d="M476.151 24.188H496.526C511.862 24.188 521.789 34.4341 521.789 49.4977C521.789 64.5613 511.852 75.3883 496.376 75.3883H476.151V24.188ZM495.876 66.4543C504.514 66.4543 509.263 58.6621 509.263 49.5077C509.263 40.3533 504.804 33.132 496.016 33.132H488.308V66.4543H495.866H495.876Z" fill="#1E3A44"/>
<path d="M525.958 49.7982C525.958 33.2822 535.826 22.9661 551.152 22.9661C566.478 22.9661 576.346 33.2822 576.346 49.7982C576.346 66.3141 566.488 76.6302 551.152 76.6302C535.816 76.6302 525.958 66.244 525.958 49.7982ZM551.152 67.1053C559.14 67.1053 563.819 60.6151 563.819 49.7982C563.819 38.9812 559.14 32.491 551.152 32.491C543.164 32.491 538.405 38.9812 538.405 49.7982C538.405 60.6151 543.154 67.1053 551.152 67.1053Z" fill="#1E3A44"/>
<path d="M580.525 49.7982C580.525 33.2822 590.392 22.9661 605.718 22.9661C621.045 22.9661 630.912 33.2822 630.912 49.7982C630.912 66.3141 621.055 76.6302 605.718 76.6302C590.382 76.6302 580.525 66.244 580.525 49.7982ZM605.718 67.1053C613.706 67.1053 618.385 60.6151 618.385 49.7982C618.385 38.9812 613.706 32.491 605.718 32.491C597.73 32.491 592.972 38.9812 592.972 49.7982C592.972 60.6151 597.72 67.1053 605.718 67.1053Z" fill="#1E3A44"/>
<path d="M636.521 24.188H658.985C671.942 24.188 677.7 30.5379 677.7 39.9127C677.7 46.3327 674.321 51.7412 667.693 53.9747L679 75.3983H665.823L656.036 55.7775H648.697V75.3983H636.531V24.188H636.521ZM656.536 47.4144C662.434 47.4144 665.033 44.5299 665.033 39.9127C665.033 35.2954 662.514 32.7715 656.536 32.7715H648.687V47.4144H656.536Z" fill="#1E3A44"/>
<path d="M49.9875 25.0493L0 0V76.9507L49.7675 101.89L49.9875 102L99.695 77.0909L99.975 76.9507V0L49.9875 25.0493ZM52.5069 95.1192V55.6573L91.887 75.3783L52.5069 95.1092V95.1192ZM47.5081 47.5646L8.08798 27.8537L26.2534 18.7594L47.4881 29.3961L47.5081 47.5746V47.5646ZM25.8935 42.3464L47.5081 53.1634V70.6508L8.15796 50.97L25.8935 42.3564V42.3464ZM47.4981 76.2496V95.1192L8.09797 75.3983L26.9433 65.9635L47.4981 76.2496Z" fill="#1E3A44"/>
</g>
<defs>
<clipPath id="clip0_202_112">
<rect width="679" height="102" fill="white"/>
</clipPath>
</defs>
</svg>
